<svg width="27" height="27" viewBox="0 0 27 27" fill="none" xmlns="http://www.w3.org/2000/svg">
<path fill-rule="evenodd" clip-rule="evenodd" d="M26.6667 13.3333C26.6667 20.6973 20.6973 26.6667 13.3333 26.6667C5.96933 26.6667 0 20.6973 0 13.3333C0 5.96933 5.96933 0 13.3333 0C20.6973 0 26.6667 5.96933 26.6667 13.3333ZM10.672 4.33467C10.937 4.33713 11.1902 4.44467 11.3759 4.63367C11.5617 4.82268 11.6648 5.07768 11.6627 5.34267C11.6533 6.47733 11.6187 7.44533 11.4613 8.24933C11.2987 9.08 10.992 9.804 10.3973 10.3987C9.80267 10.9933 9.07733 11.3 8.24667 11.4627C7.444 11.62 6.476 11.6547 5.34133 11.664C5.21001 11.6651 5.07977 11.6402 4.95804 11.5909C4.83631 11.5417 4.72548 11.4689 4.63188 11.3768C4.53828 11.2846 4.46374 11.175 4.41251 11.0541C4.36129 10.9332 4.33438 10.8033 4.33333 10.672C4.33228 10.5407 4.35711 10.4104 4.40639 10.2887C4.45568 10.167 4.52845 10.0562 4.62057 9.96255C4.71269 9.86895 4.82234 9.79441 4.94326 9.74318C5.06418 9.69196 5.19401 9.66505 5.32533 9.664C6.46667 9.65467 7.26267 9.61733 7.86267 9.5C8.43467 9.388 8.75067 9.21733 8.98267 8.984C9.216 8.752 9.38667 8.436 9.49867 7.864C9.616 7.264 9.65333 6.46667 9.66267 5.32667C9.66371 5.19523 9.69066 5.06529 9.74197 4.94428C9.79327 4.82326 9.86793 4.71355 9.96168 4.62142C10.0554 4.52928 10.1664 4.45653 10.2883 4.40733C10.4102 4.35813 10.5406 4.33344 10.672 4.33467ZM15.992 4.33467C16.1233 4.33361 16.2536 4.35843 16.3753 4.40772C16.497 4.457 16.6079 4.52978 16.7015 4.62189C16.7951 4.71401 16.8696 4.82366 16.9208 4.94459C16.972 5.06551 16.999 5.19534 17 5.32667C17.0093 6.46667 17.0467 7.264 17.164 7.864C17.276 8.436 17.448 8.752 17.68 8.984C17.912 9.21733 18.228 9.388 18.8 9.5C19.4 9.61733 20.1973 9.65467 21.3387 9.664C21.47 9.66514 21.5998 9.69213 21.7207 9.74344C21.8416 9.79474 21.9512 9.86936 22.0432 9.96302C22.1353 10.0567 22.208 10.1676 22.2572 10.2893C22.3064 10.4111 22.3311 10.5413 22.33 10.6727C22.3289 10.804 22.3019 10.9338 22.2506 11.0547C22.1993 11.1756 22.1246 11.2852 22.031 11.3772C21.9373 11.4693 21.8264 11.542 21.7047 11.5912C21.5829 11.6404 21.4527 11.6651 21.3213 11.664C20.188 11.6547 19.2187 11.62 18.4147 11.4627C17.584 11.3 16.86 10.9933 16.2653 10.3987C15.6707 9.804 15.3653 9.07867 15.2013 8.248C15.044 7.44533 15.0093 6.47733 15 5.34267C14.9979 5.07768 15.101 4.82268 15.2868 4.63367C15.4725 4.44467 15.7257 4.33713 15.9907 4.33467M5.34 15.0013C5.07478 14.9992 4.81959 15.1025 4.63055 15.2886C4.44151 15.4746 4.33412 15.7281 4.332 15.9933C4.32988 16.2585 4.4332 16.5137 4.61924 16.7028C4.80527 16.8918 5.05878 16.9992 5.324 17.0013C6.46533 17.0107 7.26133 17.048 7.86133 17.1653C8.43333 17.2773 8.74933 17.448 8.98133 17.68C9.21467 17.9133 9.38533 18.2293 9.49733 18.8C9.61467 19.4 9.652 20.1973 9.66133 21.3387C9.66247 21.47 9.68946 21.5998 9.74077 21.7207C9.79208 21.8416 9.86669 21.9512 9.96035 22.0432C10.054 22.1353 10.1649 22.208 10.2867 22.2572C10.4084 22.3064 10.5387 22.3311 10.67 22.33C10.8013 22.3289 10.9311 22.3019 11.052 22.2506C11.1729 22.1993 11.2825 22.1246 11.3746 22.031C11.4666 21.9373 11.5393 21.8264 11.5885 21.7047C11.6377 21.5829 11.6625 21.4527 11.6613 21.3213C11.652 20.188 11.6173 19.22 11.46 18.416C11.2973 17.5853 10.9907 16.8613 10.396 16.2667C9.80133 15.672 9.076 15.3653 8.24533 15.2027C7.44267 15.0453 6.47467 15.0107 5.34 15M22.328 15.9907C22.3301 16.2557 22.227 16.5107 22.0412 16.6997C21.8555 16.8887 21.6023 16.9962 21.3373 16.9987C20.196 17.0093 19.3987 17.0467 18.7987 17.164C18.2267 17.276 17.9107 17.4467 17.6787 17.6787C17.4453 17.912 17.2747 18.228 17.1627 18.7987C17.0453 19.3987 17.008 20.196 16.9987 21.3373C16.9975 21.4687 16.9705 21.5985 16.9192 21.7194C16.8679 21.8402 16.7933 21.9498 16.6996 22.0419C16.606 22.134 16.4951 22.2067 16.3733 22.2559C16.2516 22.3051 16.1213 22.3298 15.99 22.3287C15.8587 22.3275 15.7289 22.3005 15.608 22.2492C15.4871 22.1979 15.3775 22.1233 15.2854 22.0296C15.1934 21.936 15.1207 21.8251 15.0715 21.7033C15.0223 21.5816 14.9975 21.4513 14.9987 21.32C15.008 20.1867 15.0427 19.2187 15.2 18.4147C15.364 17.584 15.6693 16.86 16.264 16.2653C16.8587 15.6707 17.584 15.364 18.4147 15.2013C19.2173 15.044 20.1853 15.0093 21.32 14.9987C21.4513 14.9976 21.5816 15.0224 21.7033 15.0717C21.825 15.121 21.9359 15.1938 22.0295 15.2859C22.1231 15.378 22.1976 15.4877 22.2488 15.6086C22.3001 15.7295 22.327 15.8593 22.328 15.9907Z" fill="#9CF227"/>
</svg>
